<svg xmlns="http://www.w3.org/2000/svg" viewBox="277.81 83.129 169.25 174.38" fill="#584C3D"><path d="M411.26 202.453h-97.646c-19.741 0-35.802-14.505-35.802-32.333s16.061-32.333 35.802-32.333h97.646c19.741 0 35.802 14.504 35.802 32.333s-16.061 32.333-35.802 32.333zm-97.646-61.667c-18.087 0-32.802 13.159-32.802 29.333s14.715 29.333 32.802 29.333h97.646c18.087 0 32.802-13.159 32.802-29.333s-14.715-29.333-32.802-29.333h-97.646zm97.176 54.577h-96.71c-15.76 0-28.582-11.324-28.582-25.243s12.822-25.243 28.582-25.243h96.71c15.761 0 28.583 11.324 28.583 25.243s-12.822 25.243-28.583 25.243zm-96.71-47.486c-14.106 0-25.582 9.978-25.582 22.243s11.476 22.243 25.582 22.243h96.71c14.106 0 25.583-9.978 25.583-22.243s-11.477-22.243-25.583-22.243h-96.71zm96.33 40.396h-95.944c-11.598 0-21.032-8.144-21.032-18.153s9.435-18.153 21.032-18.153h95.944c11.598 0 21.032 8.144 21.032 18.153s-9.435 18.153-21.032 18.153zm-95.945-33.306c-9.943 0-18.032 6.797-18.032 15.153s8.089 15.153 18.032 15.153h95.944c9.943 0 18.032-6.798 18.032-15.153s-8.089-15.153-18.032-15.153h-95.944zm96.125 26.216h-96.295c-7.27 0-13.185-4.963-13.185-11.063s5.915-11.063 13.185-11.063h96.295c7.27 0 13.184 4.962 13.184 11.063s-5.914 11.063-13.184 11.063zm-96.295-19.125c-5.616 0-10.185 3.617-10.185 8.063s4.568 8.063 10.185 8.063h96.295c5.615 0 10.184-3.617 10.184-8.063s-4.568-8.063-10.184-8.063h-96.295zm77.475 63.115c0 16.174-13.159 29.333-29.334 29.334-8.087 0-15.421-3.29-20.732-8.601s-8.601-12.645-8.602-20.732v-18.281h-3v18.281a32.12 32.12 0 0 0 9.47 22.863c6.107 6.107 14.227 9.471 22.863 9.47 17.828 0 32.333-14.505 32.333-32.333v-18.28h-3l.002 18.279zm-7.09-1.49c0 12.265-9.978 22.243-22.243 22.243-5.941 0-11.527-2.314-15.728-6.515s-6.514-9.786-6.514-15.728l-.001-16.788h-3l.001 16.788a25.07 25.07 0 0 0 7.393 17.849c4.768 4.768 11.107 7.394 17.85 7.394 13.919 0 25.243-11.324 25.243-25.243v-16.787h-3v16.787zm-7.09-1.5a15.05 15.05 0 0 1-15.153 15.153c-4.048 0-7.852-1.576-10.715-4.438a15.05 15.05 0 0 1-4.438-10.715v-15.294h-3v15.294a18.03 18.03 0 0 0 18.153 18.153c4.849 0 9.408-1.888 12.836-5.316s5.316-7.987 5.316-12.836v-15.295h-3v15.294zm-7.09-1.49c0 4.446-3.617 8.063-8.063 8.063a8.04 8.04 0 0 1-5.698-2.364c-1.46-1.46-2.364-3.475-2.364-5.698v-13.801h-3v13.801c-.001 6.099 4.963 11.063 11.062 11.062 2.955 0 5.733-1.151 7.823-3.24a10.99 10.99 0 0 0 3.24-7.822v-13.801h-3v13.8zm-72.57-105.23c0-16.174 13.159-29.333 29.334-29.334 8.087 0 15.421 3.29 20.732 8.601s8.601 12.645 8.602 20.732v18.281h3v-18.281a32.12 32.12 0 0 0-9.47-22.863c-6.107-6.107-14.227-9.471-22.863-9.47-17.828 0-32.333 14.505-32.333 32.333v18.28h3l-.002-18.279z"/><use href="#B"/><use href="#C"/><path d="M319.2 119.943c0-4.446 3.617-8.063 8.063-8.063a8.04 8.04 0 0 1 5.698 2.364c1.46 1.46 2.364 3.475 2.364 5.698v13.801h3v-13.801c.001-6.099-4.963-11.063-11.062-11.062-2.955 0-5.733 1.151-7.823 3.24a10.99 10.99 0 0 0-3.24 7.822v13.801h3v-13.8zm49.08-4.48c0-16.174 13.16-29.333 29.334-29.334 8.087 0 15.421 3.29 20.732 8.601s8.601 12.645 8.602 20.732v18.281h3v-18.281a32.12 32.12 0 0 0-9.47-22.863c-6.107-6.107-14.227-9.471-22.863-9.47-17.828 0-32.333 14.505-32.333 32.333v18.28h3l-.002-18.279z"/><use href="#B" x="70.35"/><use href="#C" x="70.34"/><path d="M389.55 119.943c0-4.446 3.617-8.063 8.063-8.063 2.223 0 4.239.905 5.698 2.364s2.364 3.475 2.364 5.698v13.801h3v-13.801c.001-6.099-4.963-11.063-11.062-11.062-2.955 0-5.733 1.151-7.823 3.24a10.99 10.99 0 0 0-3.24 7.822v13.801h3v-13.8z"/><defs ><path id="B" d="M305.02 116.953c0-12.265 9.978-22.243 22.243-22.243 5.941 0 11.527 2.314 15.728 6.515s6.514 9.786 6.514 15.728l.001 16.788h3l-.001-16.788a25.07 25.07 0 0 0-7.393-17.849c-4.768-4.768-11.107-7.394-17.85-7.394-13.919 0-25.243 11.324-25.243 25.243v16.787h3v-16.787z"/><path id="C" d="M312.12 118.453a15.05 15.05 0 0 1 15.153-15.153c4.048 0 7.852 1.576 10.715 4.438a15.05 15.05 0 0 1 4.438 10.715v15.294h3v-15.294a18.03 18.03 0 0 0-18.153-18.153c-4.849 0-9.408 1.888-12.836 5.316s-5.316 7.987-5.316 12.836v15.294h3v-15.293z"/></defs></svg>