<svg xmlns="http://www.w3.org/2000/svg" viewBox="74.139 84.029 150.92 172.58" fill="#EFE3D3" ><path d="M119.9 239.853l-33.869-33.869c-11.746-11.747-11.746-30.861 0-42.607 5.691-5.691 13.256-8.824 21.304-8.824a29.93 29.93 0 0 1 21.303 8.824l38.734 38.734a29.98 29.98 0 0 1 5.852 8.267l2.308-2.284c-1.526-2.94-3.518-5.698-5.981-8.162l-38.734-38.734c-6.272-6.273-14.612-9.727-23.482-9.727s-17.21 3.454-23.482 9.727c-12.948 12.948-12.948 34.016 0 46.964l38.734 38.734c2.037 2.037 4.276 3.753 6.652 5.149-3.409-2.727-6.838-6.582-9.339-12.192zm-27.638-37.94c-4.315-4.315-6.691-10.052-6.691-16.154a22.69 22.69 0 0 1 6.691-16.154c4.454-4.454 10.304-6.681 16.154-6.681s11.701 2.227 16.154 6.681l36.565 36.565c2.951 2.951 4.902 6.52 5.898 10.291l2.497-2.45a25.76 25.76 0 0 0-6.217-10.02l-36.565-36.565c-10.11-10.109-26.558-10.11-36.666 0-4.897 4.897-7.594 11.407-7.594 18.333a25.75 25.75 0 0 0 7.594 18.332l27.109 27.109a39.76 39.76 0 0 1-.652-5.009l-24.277-24.278zm6.233-4.06c-2.939-2.94-4.558-6.848-4.558-11.005s1.619-8.065 4.558-11.005 6.848-4.558 11.005-4.558 8.065 1.619 11.005 4.558l34.396 34.396c3.723 3.723 5.152 8.878 4.306 13.709.626-.541 1.815-1.659 3.307-3.093-.096-4.644-1.898-9.259-5.434-12.795l-34.396-34.396c-7.269-7.27-19.098-7.27-26.367 0a18.67 18.67 0 0 0 0 26.367l20.288 20.288c.117-1.367.297-2.651.519-3.838l-18.629-18.628zm6.235-4.06c-3.229-3.229-3.229-8.483 0-11.712a8.23 8.23 0 0 1 11.712 0l32.227 32.227c1.816 1.816 2.611 4.273 2.384 6.65.657 1.007 1.599 1.867 2.628 2.506 1.172-3.882.229-8.272-2.833-11.334l-32.227-32.227c-2.146-2.146-4.999-3.328-8.034-3.328a11.29 11.29 0 0 0-8.035 3.328 11.38 11.38 0 0 0 0 16.069l15.775 15.775c.43-1.324.858-2.39 1.2-3.157l-14.797-14.797zm74.57-93.009l33.869 33.869c11.746 11.747 11.746 30.861 0 42.607-5.691 5.691-13.256 8.824-21.304 8.824a29.93 29.93 0 0 1-21.303-8.824l-38.734-38.734a29.98 29.98 0 0 1-5.852-8.267l-2.308 2.284c1.526 2.94 3.518 5.698 5.981 8.162l38.734 38.734c6.272 6.273 14.612 9.727 23.482 9.727s17.21-3.454 23.482-9.727c12.948-12.948 12.948-34.016 0-46.964l-38.734-38.734c-2.037-2.037-4.276-3.753-6.652-5.149 3.409 2.726 6.838 6.582 9.339 12.192zm27.63 37.929c4.315 4.315 6.691 10.052 6.691 16.154a22.69 22.69 0 0 1-6.691 16.154c-4.454 4.454-10.304 6.681-16.154 6.681s-11.701-2.227-16.154-6.681l-36.565-36.565c-2.951-2.951-4.902-6.52-5.898-10.291l-2.497 2.45a25.76 25.76 0 0 0 6.217 10.02l36.565 36.565c10.11 10.109 26.558 10.11 36.666 0 4.897-4.897 7.594-11.407 7.594-18.333a25.75 25.75 0 0 0-7.594-18.332l-27.109-27.109a39.76 39.76 0 0 1 .652 5.009l24.277 24.278zm-6.23 4.07c2.939 2.94 4.558 6.848 4.558 11.005s-1.619 8.065-4.558 11.005-6.848 4.558-11.005 4.558-8.065-1.619-11.005-4.558l-34.396-34.396c-3.723-3.723-5.152-8.878-4.306-13.709-.626.541-1.815 1.659-3.307 3.093.096 4.644 1.898 9.259 5.434 12.795l34.396 34.396c7.269 7.27 19.098 7.27 26.367 0a18.67 18.67 0 0 0 0-26.367l-20.288-20.288c-.117 1.367-.297 2.651-.519 3.838l18.629 18.628zm-6.24 4.06c3.229 3.229 3.229 8.483 0 11.712a8.23 8.23 0 0 1-11.712 0l-32.227-32.227c-1.816-1.816-2.611-4.273-2.384-6.65-.657-1.007-1.599-1.867-2.628-2.506-1.172 3.882-.229 8.272 2.833 11.334l32.227 32.227c2.146 2.146 4.999 3.328 8.034 3.328a11.29 11.29 0 0 0 8.035-3.328 11.38 11.38 0 0 0 0-16.069l-15.775-15.775c-.43 1.324-.858 2.39-1.2 3.157l14.797 14.797zM169.55 93.74c-6.474-6.474-14.978-9.711-23.482-9.711s-17.008 3.237-23.482 9.711l-38.734 38.734c-9.075 9.076-11.78 22.138-8.134 33.6a36.52 36.52 0 0 1 2.26-3.41c-2.214-9.764.465-20.423 8.052-28.011l38.734-38.734c11.747-11.747 30.86-11.746 42.607 0 11.693 11.694 11.742 30.684.155 42.444l2.172 2.185c12.796-12.96 12.749-33.911-.148-46.808zm-83.98 61.133c0-6.102 2.376-11.839 6.691-16.154l36.565-36.565c8.908-8.907 23.401-8.907 32.309 0 8.482 8.482 8.868 22.019 1.196 30.985l2.188 2.201c8.879-10.173 8.482-25.678-1.205-35.365-5.054-5.054-11.694-7.581-18.333-7.581s-13.279 2.527-18.333 7.581L90.083 136.54c-4.897 4.897-7.594 11.407-7.594 18.332 0 .892.047 1.777.135 2.653.952-.871 1.938-1.686 2.957-2.439-.001-.07-.011-.14-.011-.213zm12.925-12.09l34.396-34.396c2.94-2.939 6.848-4.558 11.005-4.558s8.065 1.619 11.005 4.558c5.257 5.257 5.951 13.368 2.099 19.389l2.211 2.224c5.034-7.263 4.334-17.327-2.131-23.792-3.634-3.635-8.409-5.452-13.184-5.452s-9.549 1.817-13.184 5.452l-34.396 34.396c-3.126 3.126-4.899 7.097-5.337 11.184 1.099-.548 2.219-1.037 3.358-1.469.643-2.83 2.056-5.433 4.158-7.536z"/><path d="M104.73 146.843l32.227-32.227c3.229-3.229 8.483-3.228 11.712 0 1.932 1.933 2.699 4.589 2.318 7.104l2.523 2.539c1.408-3.998.529-8.629-2.663-11.822-2.146-2.146-4.999-3.328-8.035-3.328s-5.888 1.182-8.034 3.328l-32.227 32.227c-1.176 1.176-2.03 2.551-2.582 4.015a37.38 37.38 0 0 1 3.728-.575 8.28 8.28 0 0 1 1.033-1.261zm116.52 31.28c2.154 9.724-.535 20.314-8.084 27.864l-38.734 38.734c-11.747 11.747-30.86 11.746-42.607 0-11.693-11.694-11.742-30.684-.155-42.444l-2.172-2.185c-12.794 12.96-12.748 33.911.149 46.808 6.474 6.474 14.978 9.711 23.482 9.711s17.008-3.237 23.482-9.711l38.734-38.734c9.011-9.011 11.743-21.954 8.212-33.357a36.83 36.83 0 0 1-2.307 3.314zm-7.63 7.64c0 6.102-2.376 11.839-6.691 16.154l-36.565 36.565c-8.908 8.907-23.401 8.907-32.309 0-8.482-8.482-8.868-22.019-1.196-30.985l-2.188-2.201c-8.879 10.173-8.482 25.678 1.205 35.365 5.054 5.054 11.694 7.581 18.333 7.581s13.279-2.527 18.333-7.581l36.565-36.565c4.897-4.897 7.594-11.407 7.594-18.332a26.62 26.62 0 0 0-.137-2.673c-.954.841-1.942 1.624-2.96 2.349.001.108.016.214.016.323zm-12.92 12.09l-34.396 34.396c-2.94 2.939-6.848 4.558-11.005 4.558s-8.065-1.619-11.005-4.558c-5.257-5.257-5.951-13.368-2.099-19.389l-2.211-2.224c-5.034 7.263-4.334 17.327 2.131 23.792 3.634 3.635 8.409 5.452 13.184 5.452s9.549-1.817 13.184-5.452l34.396-34.396c3.187-3.187 4.976-7.251 5.368-11.422a36.7 36.7 0 0 1-3.313 1.4 15.46 15.46 0 0 1-4.234 7.843zm-6.24-4.06l-32.227 32.227c-3.229 3.229-8.483 3.228-11.712 0-1.932-1.933-2.699-4.589-2.318-7.104l-2.524-2.539c-1.408 3.998-.529 8.629 2.663 11.822 2.146 2.146 4.999 3.328 8.035 3.328s5.888-1.182 8.034-3.328l32.227-32.227a11.28 11.28 0 0 0 2.715-4.395c-1.194.235-2.396.412-3.604.529a8.23 8.23 0 0 1-1.289 1.687z"/></svg>