<svg xmlns="http://www.w3.org/2000/svg" viewBox="285.624 272.908 153.457 153.537" fill="#AE9675"><path d="M288.624 367.586v-91.678h91.679v50.05h3v-53.05h-97.679v97.678h97.629l-3-3zm8.03-8.029v-75.62h75.62v42.021h3v-45.021h-81.62v81.62h81.57l-3-3zm7.839-7.839v-59.942h59.942v34.182h3v-37.182h-65.942v65.942h65.892l-3-3zm7.224-7.224v-45.493h45.493v26.957h3v-29.957h-51.493v51.493h51.444l-3-3z"/><use href="#B"/><use href="#B" y="8.03"/><use href="#B" y="15.868"/><use href="#B" y="-285.443"/><use href="#C"/><use href="#C" x="-8.029"/><use href="#C" x="-15.868"/><use href="#C" x="-23.092"/><path d="M341.309 328.608v.05l3 3v-.05h91.679v91.679h-91.679v-50.079h-3v53.079h97.679v-97.679zm8.029 8.029v.05l3 3v-.05h75.62v75.621h-75.62v-42.05h-3v45.05h81.62v-81.621zm7.875 7.858l-.052-.002 3.001 3.001.051.001h59.943v59.942h-59.943v-34.21h-3v37.21h65.943v-65.942zm7.189 7.206v.049l2.95 2.951h.05 45.493v45.493h-45.493v-26.986h-3v29.986h51.493v-51.493z"/><defs ><path id="B" d="M386.248 290.276h52.833v3h-52.833z"/><path id="C" d="M324.838 373.612h3v52.833h-3z"/></defs></svg>