<svg xmlns="http://www.w3.org/2000/svg" width="1438" height="1438" fill="#303030" xmlns:v="https://vecta.io/nano"><rect x="10" y="10" width="1418" height="1418" rx="709" stroke="#303030" stroke-width="20"/><path d="M680.493 334l21.875 144.502h-15.985l-2.946-21.244h-21.874l-2.734 21.244h-15.987L662.825 334h17.668zm-17.248 109.586h18.299l-9.255-68.78-9.044 68.78zM723.713 334v128.517h21.664v15.985h-38.281V334h16.617zm43.218 0v128.517h21.665v15.985h-38.282V334h16.617zM340.916 554.397L401.8 900.47l60.082-346.073h84.917v550.353H489.92V739.449l-74.834 365.301h-13.882-13.882l-73.643-362.897v362.897H256V554.397h84.916zm366.708 0l83.314 550.353h-60.883l-11.215-80.91h-83.315l-10.413 80.91h-60.884l76.104-550.353h67.292zm-65.69 417.37h69.696l-35.249-261.958-34.447 261.958zm230.297 72.103h22.43c9.08 0 16.557-2.14 22.431-6.41 6.409-4.81 11.482-14.69 15.221-29.64 4.272-14.957 7.211-36.587 8.813-64.891 2.136-28.306 3.204-66.224 3.204-113.757s-1.068-85.45-3.204-113.755c-1.602-28.306-4.541-49.935-8.813-64.889-3.739-15.488-8.812-25.368-15.221-29.641-5.874-4.806-13.351-7.209-22.431-7.209h-22.43v430.192zm22.43-489.473c20.295 0 37.385 3.471 51.271 10.414 14.419 6.943 25.902 20.561 34.447 40.856 9.078 19.761 15.487 47.799 19.226 84.114 4.275 35.783 6.405 82.514 6.405 140.193s-2.13 104.409-6.405 140.191c-3.739 35.785-10.148 63.825-19.226 84.115-8.545 19.76-20.028 33.11-34.447 40.06-13.886 6.94-30.976 10.41-51.271 10.41h-85.717V554.397h85.717zm288.169 0v59.281h-87.32v68.894h85.71v52.872h-85.71v308.426h87.32v60.88h-150.61V554.397h150.61z" fill="#ae9675"/></svg>