<svg xmlns="http://www.w3.org/2000/svg" width="1438" height="1438" fill="none" xmlns:v="https://vecta.io/nano"><g clip-path="url(#A)"><rect width="1438" height="1438" rx="719" fill="#cb2d2d"/><g fill="#fff"><path d="M688.609 418.103l17.081 112.826h-12.482l-2.299-16.587h-17.08l-2.134 16.587h-12.483l15.603-112.826h13.794zm-13.466 85.564h14.287l-7.226-53.703-7.061 53.703zm47.212-85.564v100.345h16.916v12.481h-29.89V418.103h12.974zm33.744 0v100.345h16.917v12.481h-29.891V418.103h12.974zM423.471 590.187l47.537 270.211 46.912-270.211h66.302V1019.9h-44.41V734.674l-58.43 285.226h-10.839-10.839l-57.5-283.349V1019.9h-45.035V590.187h66.302zm286.323 0l65.05 429.713h-47.537l-8.757-63.177H653.5l-8.132 63.177h-47.537l59.422-429.713h52.541zm-51.291 325.879h54.419l-27.523-204.535-26.896 204.535zm179.815 56.294h17.513c7.089 0 12.926-1.668 17.513-5.004 5.004-3.753 8.966-11.467 11.885-23.143 3.336-11.676 5.629-28.564 6.88-50.664 1.668-22.101 2.503-51.707 2.503-88.82s-.835-66.719-2.503-88.819c-1.251-22.101-3.544-38.989-6.88-50.665-2.919-12.093-6.881-19.807-11.885-23.143-4.587-3.753-10.424-5.629-17.513-5.629h-17.513V972.36zm17.513-382.173c15.846 0 29.189 2.71 40.031 8.131 11.258 5.421 20.224 16.054 26.896 31.9 7.088 15.429 12.092 37.321 15.011 65.676 3.336 27.939 5.004 64.426 5.004 109.461s-1.668 81.522-5.004 109.46c-2.919 27.939-7.923 49.831-15.011 65.677-6.672 15.428-15.638 25.848-26.896 31.278-10.842 5.42-24.185 8.13-40.031 8.13h-66.927V590.187h66.927zm224.999 0v46.286h-68.18v53.792h66.92v41.282h-66.92V972.36h68.18v47.54H963.234V590.187h117.596z"/></g></g><defs><clipPath id="A"><rect width="1438" height="1438" rx="719" fill="#fff"/></clipPath></defs></svg>